<?xml version="1.0" encoding="UTF-8" standalone="no"?>
<!-- Created with Inkscape (http://www.inkscape.org/) -->

<svg
   width="17.439173mm"
   height="34.099468mm"
   viewBox="0 0 17.439173 34.099468"
   version="1.1"
   id="svg4960"
   xml:space="preserve"
   inkscape:version="1.2.1 (9c6d41e4, 2022-07-14)"
   sodipodi:docname="logo.svg"
   xmlns:inkscape="http://www.inkscape.org/namespaces/inkscape"
   xmlns:sodipodi="http://sodipodi.sourceforge.net/DTD/sodipodi-0.dtd"
   xmlns:xlink="http://www.w3.org/1999/xlink"
   xmlns="http://www.w3.org/2000/svg"
   xmlns:svg="http://www.w3.org/2000/svg"><sodipodi:namedview
     id="namedview4962"
     pagecolor="#ffffff"
     bordercolor="#000000"
     borderopacity="0.25"
     inkscape:showpageshadow="2"
     inkscape:pageopacity="0.0"
     inkscape:pagecheckerboard="0"
     inkscape:deskcolor="#d1d1d1"
     inkscape:document-units="mm"
     showgrid="false"
     inkscape:zoom="3.3276716"
     inkscape:cx="28.398235"
     inkscape:cy="61.454381"
     inkscape:window-width="1440"
     inkscape:window-height="787"
     inkscape:window-x="0"
     inkscape:window-y="25"
     inkscape:window-maximized="0"
     inkscape:current-layer="layer1" /><defs
     id="defs4957"><linearGradient
       id="linearGradient11024"><stop
         style="stop-color:#ffffff;stop-opacity:1;"
         offset="0"
         id="stop11040" /><stop
         style="stop-color:#ffffff;stop-opacity:0;"
         offset="1"
         id="stop11042" /></linearGradient><linearGradient
       id="linearGradient11024-1"><stop
         style="stop-color:#ffffff;stop-opacity:1;"
         offset="0"
         id="stop11020" /><stop
         style="stop-color:#49843c;stop-opacity:0.6912443;"
         offset="1"
         id="stop11022" /></linearGradient><style
       id="style5167">.cls-1{fill:#3f8624;}</style><linearGradient
       inkscape:collect="always"
       xlink:href="#linearGradient11024-1"
       id="linearGradient11026"
       x1="90.362625"
       y1="94.651917"
       x2="101.15727"
       y2="94.651924"
       gradientUnits="userSpaceOnUse" /><linearGradient
       inkscape:collect="always"
       xlink:href="#linearGradient11024-1"
       id="linearGradient12909"
       x1="104.30569"
       y1="91.447258"
       x2="90.812408"
       y2="87.73661"
       gradientUnits="userSpaceOnUse" /></defs><g
     inkscape:label="Layer 1"
     inkscape:groupmode="layer"
     id="layer1"
     transform="translate(-87.776411,-68.621091)"><g
       id="g34163"><path
         style="fill:url(#linearGradient11026);fill-opacity:1;stroke:none;stroke-width:1;stroke-linecap:square;stroke-dasharray:none;stroke-opacity:1"
         d="m 88.28241,87.624159 1.686663,13.212191 c 0,0 1.013597,1.4432 5.90332,1.518 4.949837,0.0757 6.184427,-1.63044 6.184427,-1.63044 l 1.74289,-13.32464 c 0,0 -0.506,-1.461774 -4.272881,-2.361328 -1.898267,-0.453318 -6.187635,-0.347286 -8.995536,0.562222 -2.300598,0.745187 -2.248883,2.023995 -2.248883,2.023995 z"
         id="path9196"
         sodipodi:nodetypes="ccsccssc" /><ellipse
         style="fill:url(#linearGradient12909);fill-opacity:1;stroke:none;stroke-width:1;stroke-linecap:square;stroke-dasharray:none;stroke-opacity:1"
         id="path12901"
         cx="95.872391"
         cy="87.286827"
         rx="7.7586489"
         ry="2.1364398" /><path
         class="cls-1"
         d="m 95.974651,102.72029 c -2.473543,0 -6.387082,-0.56128 -6.437405,-2.06709 L 87.783702,87.642909 a 0.3943869,0.3943869 0 0 1 0.774191,-0.150968 c 0.193548,0.747096 3.116122,1.792254 7.432242,1.792254 4.316115,0 7.234825,-1.045158 7.428375,-1.792254 a 0.3943869,0.3943869 0 0 1 0.77419,0.150968 l -1.78452,13.010291 c 0,0.51097 -0.47225,0.94839 -1.3587,1.30064 a 8.8528832,8.8528832 0 0 1 -1.207741,0.36387 17.84125,17.84125 0 0 1 -3.867088,0.40258 z m -7.26579,-14.02448 1.587093,11.89546 c 0,0 0,0.0348 0,0.0503 0,0.45677 2.202576,1.32387 5.663213,1.32387 a 16.935446,16.935446 0 0 0 3.692895,-0.3871 8.1290139,8.1290139 0 0 0 1.095478,-0.34451 c 0.71613,-0.28258 0.87484,-0.53807 0.87484,-0.61162 a 0.23999946,0.23999946 0 0 1 0,-0.0503 l 1.59871,-11.8761 c -1.49419,0.89032 -4.5058,1.362577 -7.265794,1.362577 -2.759994,0 -5.756116,-0.472257 -7.246435,-1.362577 z"
         id="path5173"
         style="stroke-width:0.387096" /><path
         class="cls-1"
         d="m 95.974651,90.058387 c -3.665798,0 -7.780628,-0.832256 -8.179337,-2.369027 a 0.30580576,0.30580576 0 0 1 0,-0.05032 v -0.158709 a 0.23999946,0.23999946 0 0 1 0,-0.05032 c 0,-1.710964 4.327733,-2.903219 8.214175,-2.903219 3.886443,0 8.179341,1.192255 8.179341,2.903219 0,0 0,0.03097 0,0.05032 l -0.0232,0.158709 a 0.26709617,0.26709617 0 0 1 0,0.05032 c -0.41419,1.536771 -4.529022,2.369027 -8.190949,2.369027 z m -7.42837,-2.547091 c 0.239999,0.747095 3.15096,1.772899 7.42837,1.772899 4.277409,0 7.184499,-1.025804 7.424499,-1.772899 V 87.40678 c -0.0426,-0.750966 -3.0929,-2.105801 -7.424499,-2.105801 -4.331603,0 -7.38579,1.354835 -7.439983,2.105801 z"
         id="path5175"
         style="stroke-width:0.387096" /><path
         class="cls-1"
         d="m 104.20431,95.411924 c -1.84258,0 -5.876116,-1.823222 -8.399981,-3.061929 l 0.340644,-0.696773 c 3.483863,1.714835 7.587077,3.298057 8.287727,2.999994 -0.0542,-0.112258 -0.31355,-0.460645 -1.54839,-1.13032 l -0.0619,-0.03871 0.38709,-0.673547 0.0581,0.03484 c 1.24258,0.685159 1.83483,1.21161 1.93548,1.707093 a 0.70451454,0.70451454 0 0 1 -0.15484,0.588385 1.0722556,1.0722556 0 0 1 -0.84387,0.270968 z"
         id="path5177"
         style="stroke-width:0.387096" /><path
         class="cls-1"
         d="m 95.974651,92.849349 a 0.8399981,0.8399981 0 1 1 0.839998,-0.839998 0.84386906,0.84386906 0 0 1 -0.839998,0.839998 z m 0,-0.905805 a 0.0658063,0.0658063 0 0 0 -0.06968,0.06581 c 0,0.07355 0.135483,0.07355 0.135483,0 a 0.0658063,0.0658063 0 0 0 -0.06581,-0.07355 z"
         id="path5179"
         style="stroke-width:0.387096" /><g
         transform="matrix(0.05888907,0,0,0.05888907,160.28211,113.6813)"
         id="g5200"><path
           clip-path="none"
           mask="none"
           d="m -1089.333,-687.239 v 36.888 h 51.262 c -2.251,11.863 -9.006,21.908 -19.137,28.662 l 30.913,23.986 c 18.011,-16.625 28.402,-41.044 28.402,-70.052 0,-6.754 -0.606,-13.249 -1.732,-19.483 z"
           fill="#4285f4"
           id="path5192" /><path
           clip-path="none"
           mask="none"
           d="m -1142.714,-651.791 -6.972,5.337 -24.679,19.223 v 0 c 15.673,31.086 47.796,52.561 85.03,52.561 25.717,0 47.278,-8.486 63.038,-23.033 l -30.913,-23.986 c -8.486,5.715 -19.31,9.179 -32.125,9.179 -24.765,0 -45.806,-16.712 -53.34,-39.226 z"
           fill="#34a853"
           id="path5194" /><path
           clip-path="none"
           mask="none"
           d="m -1174.365,-712.61 c -6.494,12.815 -10.217,27.276 -10.217,42.689 0,15.413 3.723,29.874 10.217,42.689 0,0.086 31.693,-24.592 31.693,-24.592 -1.905,-5.715 -3.031,-11.776 -3.031,-18.098 0,-6.322 1.126,-12.383 3.031,-18.098 z"
           fill="#fbbc05"
           id="path5196" /><path
           d="m -1089.333,-727.244 c 14.028,0 26.497,4.849 36.455,14.201 l 27.276,-27.276 c -16.539,-15.413 -38.013,-24.852 -63.731,-24.852 -37.234,0 -69.359,21.388 -85.032,52.561 l 31.692,24.592 c 7.533,-22.514 28.575,-39.226 53.34,-39.226 z"
           fill="#ea4335"
           clip-path="none"
           mask="none"
           id="path5198" /></g><path
         style="fill:none;fill-opacity:1;stroke:#7f7f7f;stroke-width:1.02725;stroke-linecap:square;stroke-dasharray:none;stroke-opacity:1"
         d="m 95.852722,81.115519 v 4.195137"
         id="path5267" /><path
         style="fill:#7f7f7f;fill-opacity:1;stroke:none;stroke-width:1;stroke-linecap:square;stroke-dasharray:none;stroke-opacity:1"
         d="m 95.846681,87.345707 -1.530569,-3.071075 h 3.071076 z"
         id="path33984" /></g></g></svg>
